# xmcd CD database file
#
# Track frame offsets:
#	182
#	16387
#	32902
#	48385
#	64730
#	81255
#	95522
#	108542
#	127110
#	138407
#	152697
#
# Disc length: 2239 seconds
#
# Revision: 4
# Processed by: cddbd v1.5.2PL0 Copyright (c) Steve Scherf et al.
# Submitted via: jetAudio 5
#
DISCID=9508bd0b
DTITLE=Monte Warden - A Stranger To Me Now
DYEAR=1999
DGENRE=Country
TTITLE0=Your Heart Will Come Around
TTITLE1=The Love You Promised Me
TTITLE2=It's Only Love
TTITLE3=For You
TTITLE4=I Take Your love
TTITLE5=A Stranger To Me now
TTITLE6=Someday
TTITLE7=Just to Hear Your Voice
TTITLE8=I Can't Tell My Heart What To Do
TTITLE9=Madeline
TTITLE10=Another Try
EXTD=
EXTT0=
EXTT1=
EXTT2=
EXTT3=
EXTT4=
EXTT5=
EXTT6=
EXTT7=
EXTT8=
EXTT9=
EXTT10=
PLAYORDER=
